<svg id="visual" viewBox="0 0 900 600" width="900" height="600" xmlns="http://www.w3.org/2000/svg" xmlns:xlink="http://www.w3.org/1999/xlink" version="1.1"><rect x="0" y="0" width="900" height="600" fill="#21478C"></rect><defs><linearGradient id="grad1_0" x1="33.3%" y1="100%" x2="100%" y2="0%"><stop offset="20%" stop-color="#21478c" stop-opacity="1"></stop><stop offset="80%" stop-color="#21478c" stop-opacity="1"></stop></linearGradient></defs><defs><linearGradient id="grad2_0" x1="0%" y1="100%" x2="66.7%" y2="0%"><stop offset="20%" stop-color="#21478c" stop-opacity="1"></stop><stop offset="80%" stop-color="#21478c" stop-opacity="1"></stop></linearGradient></defs><g transform="translate(900, 600)"><path d="M-243.4 0C-227.4 -31 -211.5 -62.1 -188.5 -78.1C-165.4 -94.1 -135.3 -95.1 -121.6 -121.6C-107.9 -148.2 -110.7 -200.3 -93.1 -224.8C-75.6 -249.4 -37.8 -246.4 0 -243.4L0 0Z" fill="#F6E700"></path></g><g transform="translate(0, 0)"><path d="M243.4 0C215.8 26.3 188.1 52.6 166.3 68.9C144.4 85.1 128.4 91.4 120.2 120.2C112.1 149.1 111.8 200.5 93.1 224.8C74.4 249.1 37.2 246.3 0 243.4L0 0Z" fill="#F6E700"></path></g></svg>