<svg id="visual" viewBox="0 0 900 600" width="900" height="600" xmlns="http://www.w3.org/2000/svg" xmlns:xlink="http://www.w3.org/1999/xlink" version="1.1"><path d="M0 31L10 31C20 31 40 31 60 32C80 33 100 35 120 36C140 37 160 37 180 36C200 35 220 33 240 34C260 35 280 39 300 39C320 39 340 35 360 34C380 33 400 35 420 36C440 37 460 37 480 36C500 35 520 33 540 33C560 33 580 35 600 35C620 35 640 33 660 33C680 33 700 35 720 36C740 37 760 37 780 37C800 37 820 37 840 36C860 35 880 33 890 32L900 31L900 0L890 0C880 0 860 0 840 0C820 0 800 0 780 0C760 0 740 0 720 0C700 0 680 0 660 0C640 0 620 0 600 0C580 0 560 0 540 0C520 0 500 0 480 0C460 0 440 0 420 0C400 0 380 0 360 0C340 0 320 0 300 0C280 0 260 0 240 0C220 0 200 0 180 0C160 0 140 0 120 0C100 0 80 0 60 0C40 0 20 0 10 0L0 0Z" fill="#506dab"></path><path d="M0 79L10 77C20 75 40 71 60 70C80 69 100 71 120 73C140 75 160 77 180 77C200 77 220 75 240 76C260 77 280 81 300 80C320 79 340 73 360 71C380 69 400 71 420 73C440 75 460 77 480 78C500 79 520 79 540 77C560 75 580 71 600 71C620 71 640 75 660 75C680 75 700 71 720 71C740 71 760 75 780 77C800 79 820 79 840 78C860 77 880 75 890 74L900 73L900 29L890 30C880 31 860 33 840 34C820 35 800 35 780 35C760 35 740 35 720 34C700 33 680 31 660 31C640 31 620 33 600 33C580 33 560 31 540 31C520 31 500 33 480 34C460 35 440 35 420 34C400 33 380 31 360 32C340 33 320 37 300 37C280 37 260 33 240 32C220 31 200 33 180 34C160 35 140 35 120 34C100 33 80 31 60 30C40 29 20 29 10 29L0 29Z" fill="#4866a5"></path><path d="M0 103L10 101C20 99 40 95 60 95C80 95 100 99 120 101C140 103 160 103 180 103C200 103 220 103 240 105C260 107 280 111 300 110C320 109 340 103 360 101C380 99 400 101 420 102C440 103 460 103 480 103C500 103 520 103 540 101C560 99 580 95 600 95C620 95 640 99 660 100C680 101 700 99 720 99C740 99 760 101 780 102C800 103 820 103 840 102C860 101 880 99 890 98L900 97L900 71L890 72C880 73 860 75 840 76C820 77 800 77 780 75C760 73 740 69 720 69C700 69 680 73 660 73C640 73 620 69 600 69C580 69 560 73 540 75C520 77 500 77 480 76C460 75 440 73 420 71C400 69 380 67 360 69C340 71 320 77 300 78C280 79 260 75 240 74C220 73 200 75 180 75C160 75 140 73 120 71C100 69 80 67 60 68C40 69 20 73 10 75L0 77Z" fill="#405fa0"></path><path d="M0 121L10 120C20 119 40 117 60 118C80 119 100 123 120 125C140 127 160 127 180 127C200 127 220 127 240 128C260 129 280 131 300 129C320 127 340 121 360 120C380 119 400 123 420 125C440 127 460 127 480 127C500 127 520 127 540 124C560 121 580 115 600 115C620 115 640 121 660 123C680 125 700 123 720 123C740 123 760 125 780 126C800 127 820 127 840 126C860 125 880 123 890 122L900 121L900 95L890 96C880 97 860 99 840 100C820 101 800 101 780 100C760 99 740 97 720 97C700 97 680 99 660 98C640 97 620 93 600 93C580 93 560 97 540 99C520 101 500 101 480 101C460 101 440 101 420 100C400 99 380 97 360 99C340 101 320 107 300 108C280 109 260 105 240 103C220 101 200 101 180 101C160 101 140 101 120 99C100 97 80 93 60 93C40 93 20 97 10 99L0 101Z" fill="#38589a"></path><path d="M0 145L10 145C20 145 40 145 60 146C80 147 100 149 120 151C140 153 160 155 180 155C200 155 220 153 240 153C260 153 280 155 300 153C320 151 340 145 360 145C380 145 400 151 420 154C440 157 460 157 480 157C500 157 520 157 540 153C560 149 580 141 600 140C620 139 640 145 660 148C680 151 700 151 720 152C740 153 760 155 780 156C800 157 820 157 840 156C860 155 880 153 890 152L900 151L900 119L890 120C880 121 860 123 840 124C820 125 800 125 780 124C760 123 740 121 720 121C700 121 680 123 660 121C640 119 620 113 600 113C580 113 560 119 540 122C520 125 500 125 480 125C460 125 440 125 420 123C400 121 380 117 360 118C340 119 320 125 300 127C280 129 260 127 240 126C220 125 200 125 180 125C160 125 140 125 120 123C100 121 80 117 60 116C40 115 20 117 10 118L0 119Z" fill="#2f5194"></path><path d="M0 271L10 272C20 273 40 275 60 277C80 279 100 281 120 281C140 281 160 279 180 277C200 275 220 273 240 267C260 261 280 251 300 246C320 241 340 241 360 243C380 245 400 249 420 255C440 261 460 269 480 271C500 273 520 269 540 267C560 265 580 265 600 265C620 265 640 265 660 269C680 273 700 281 720 281C740 281 760 273 780 266C800 259 820 253 840 251C860 249 880 251 890 252L900 253L900 149L890 150C880 151 860 153 840 154C820 155 800 155 780 154C760 153 740 151 720 150C700 149 680 149 660 146C640 143 620 137 600 138C580 139 560 147 540 151C520 155 500 155 480 155C460 155 440 155 420 152C400 149 380 143 360 143C340 143 320 149 300 151C280 153 260 151 240 151C220 151 200 153 180 153C160 153 140 151 120 149C100 147 80 145 60 144C40 143 20 143 10 143L0 143Z" fill="#264a8f"></path><path d="M0 295L10 297C20 299 40 303 60 307C80 311 100 315 120 316C140 317 160 315 180 312C200 309 220 305 240 297C260 289 280 277 300 271C320 265 340 265 360 268C380 271 400 277 420 283C440 289 460 295 480 296C500 297 520 293 540 293C560 293 580 297 600 298C620 299 640 297 660 299C680 301 700 307 720 308C740 309 760 305 780 298C800 291 820 281 840 278C860 275 880 279 890 281L900 283L900 251L890 250C880 249 860 247 840 249C820 251 800 257 780 264C760 271 740 279 720 279C700 279 680 271 660 267C640 263 620 263 600 263C580 263 560 263 540 265C520 267 500 271 480 269C460 267 440 259 420 253C400 247 380 243 360 241C340 239 320 239 300 244C280 249 260 259 240 265C220 271 200 273 180 275C160 277 140 279 120 279C100 279 80 277 60 275C40 273 20 271 10 270L0 269Z" fill="#204589"></path><path d="M0 397L10 400C20 403 40 409 60 414C80 419 100 423 120 423C140 423 160 419 180 415C200 411 220 407 240 405C260 403 280 403 300 401C320 399 340 395 360 394C380 393 400 395 420 396C440 397 460 397 480 399C500 401 520 405 540 406C560 407 580 405 600 405C620 405 640 407 660 411C680 415 700 421 720 423C740 425 760 423 780 421C800 419 820 417 840 412C860 407 880 399 890 395L900 391L900 281L890 279C880 277 860 273 840 276C820 279 800 289 780 296C760 303 740 307 720 306C700 305 680 299 660 297C640 295 620 297 600 296C580 295 560 291 540 291C520 291 500 295 480 294C460 293 440 287 420 281C400 275 380 269 360 266C340 263 320 263 300 269C280 275 260 287 240 295C220 303 200 307 180 310C160 313 140 315 120 314C100 313 80 309 60 305C40 301 20 297 10 295L0 293Z" fill="#1d4282"></path><path d="M0 421L10 424C20 427 40 433 60 438C80 443 100 447 120 447C140 447 160 443 180 438C200 433 220 427 240 424C260 421 280 421 300 419C320 417 340 413 360 413C380 413 400 417 420 419C440 421 460 421 480 422C500 423 520 425 540 426C560 427 580 427 600 427C620 427 640 427 660 430C680 433 700 439 720 441C740 443 760 441 780 440C800 439 820 439 840 434C860 429 880 419 890 414L900 409L900 389L890 393C880 397 860 405 840 410C820 415 800 417 780 419C760 421 740 423 720 421C700 419 680 413 660 409C640 405 620 403 600 403C580 403 560 405 540 404C520 403 500 399 480 397C460 395 440 395 420 394C400 393 380 391 360 392C340 393 320 397 300 399C280 401 260 401 240 403C220 405 200 409 180 413C160 417 140 421 120 421C100 421 80 417 60 412C40 407 20 401 10 398L0 395Z" fill="#1b3f7b"></path><path d="M0 457L10 460C20 463 40 469 60 475C80 481 100 487 120 489C140 491 160 489 180 483C200 477 220 467 240 463C260 459 280 461 300 460C320 459 340 455 360 456C380 457 400 463 420 466C440 469 460 469 480 469C500 469 520 469 540 468C560 467 580 465 600 464C620 463 640 463 660 467C680 471 700 479 720 482C740 485 760 483 780 482C800 481 820 481 840 478C860 475 880 469 890 466L900 463L900 407L890 412C880 417 860 427 840 432C820 437 800 437 780 438C760 439 740 441 720 439C700 437 680 431 660 428C640 425 620 425 600 425C580 425 560 425 540 424C520 423 500 421 480 420C460 419 440 419 420 417C400 415 380 411 360 411C340 411 320 415 300 417C280 419 260 419 240 422C220 425 200 431 180 436C160 441 140 445 120 445C100 445 80 441 60 436C40 431 20 425 10 422L0 419Z" fill="#193c74"></path><path d="M0 517L10 519C20 521 40 525 60 528C80 531 100 533 120 533C140 533 160 531 180 528C200 525 220 521 240 519C260 517 280 517 300 517C320 517 340 517 360 518C380 519 400 521 420 522C440 523 460 523 480 522C500 521 520 519 540 518C560 517 580 517 600 517C620 517 640 517 660 520C680 523 700 529 720 531C740 533 760 531 780 530C800 529 820 529 840 528C860 527 880 525 890 524L900 523L900 461L890 464C880 467 860 473 840 476C820 479 800 479 780 480C760 481 740 483 720 480C700 477 680 469 660 465C640 461 620 461 600 462C580 463 560 465 540 466C520 467 500 467 480 467C460 467 440 467 420 464C400 461 380 455 360 454C340 453 320 457 300 458C280 459 260 457 240 461C220 465 200 475 180 481C160 487 140 489 120 487C100 485 80 479 60 473C40 467 20 461 10 458L0 455Z" fill="#17386e"></path><path d="M0 601L10 601C20 601 40 601 60 601C80 601 100 601 120 601C140 601 160 601 180 601C200 601 220 601 240 601C260 601 280 601 300 601C320 601 340 601 360 601C380 601 400 601 420 601C440 601 460 601 480 601C500 601 520 601 540 601C560 601 580 601 600 601C620 601 640 601 660 601C680 601 700 601 720 601C740 601 760 601 780 601C800 601 820 601 840 601C860 601 880 601 890 601L900 601L900 521L890 522C880 523 860 525 840 526C820 527 800 527 780 528C760 529 740 531 720 529C700 527 680 521 660 518C640 515 620 515 600 515C580 515 560 515 540 516C520 517 500 519 480 520C460 521 440 521 420 520C400 519 380 517 360 516C340 515 320 515 300 515C280 515 260 515 240 517C220 519 200 523 180 526C160 529 140 531 120 531C100 531 80 529 60 526C40 523 20 519 10 517L0 515Z" fill="#153567"></path></svg>